<svg width="25" height="14" viewBox="0 0 25 14" fill="none" xmlns="http://www.w3.org/2000/svg">
<g clip-path="url(#clip0_27_655)">
<path d="M1.70589 11.4593H0.960335C0.744478 11.4593 0.581997 11.2711 0.622402 11.0679L2.6657 0.816387C2.6967 0.661075 2.83843 0.548615 3.00362 0.548615H17.5504C17.7664 0.548615 17.9287 0.736837 17.8884 0.939974L15.8451 11.1915C15.8141 11.3468 15.6724 11.4593 15.5071 11.4593H9.46781" stroke="#16DB65" stroke-width="1.5" stroke-miterlimit="10" stroke-linecap="round"/>
<path d="M23.559 11.4593C23.7653 11.4593 23.7646 11.3149 23.7956 11.1196L24.379 7.44606C24.3979 7.32756 24.3602 7.20716 24.2764 7.11804L20.5792 3.19024C20.5 3.10619 20.3875 3.05814 20.2692 3.05814H17.8005C17.6002 3.05814 17.4281 3.19449 17.3906 3.38307L15.8755 10.9844" stroke="#16DB65" stroke-width="1.5" stroke-miterlimit="10" stroke-linecap="round"/>
<path d="M21.0784 9.55331C21.4739 9.81515 21.7781 10.2077 21.9122 10.6875C22.2124 11.7611 21.5474 12.8646 20.4269 13.1522C19.3064 13.4399 18.1545 12.8028 17.8543 11.7292C17.7254 11.2684 17.7744 10.8019 17.961 10.3968" stroke="#16DB65" stroke-width="1.5" stroke-miterlimit="10" stroke-linecap="round"/>
<path d="M19.8694 4.79293C19.83 4.7489 19.7724 4.72345 19.7119 4.72345H19.0142C18.9258 4.72345 18.8471 4.79175 18.8378 4.87627L18.4802 6.74819C18.4707 6.83247 18.5348 6.90101 18.623 6.90101H21.5983C21.6863 6.90101 21.7126 6.85283 21.6569 6.79294L19.8694 4.79293Z" stroke="#16DB65" stroke-width="1.5" stroke-miterlimit="10" stroke-linecap="round"/>
<path d="M6.74512 9.55331C7.14063 9.81515 7.4448 10.2077 7.57899 10.6875C7.87924 11.7611 7.21424 12.8646 6.09369 13.1522C4.97313 13.4399 3.82131 12.8028 3.52107 11.7292C3.39218 11.2684 3.44116 10.8019 3.62774 10.3968" stroke="#16DB65" stroke-width="1.5" stroke-miterlimit="10" stroke-linecap="round"/>
<path d="M3.56123 7.10152L3.55176 7.15585H3.60924H4.47752H4.51873L4.52553 7.1169L4.72112 5.99572H5.75882H5.79989L5.80681 5.95692L5.94292 5.19249L5.95262 5.13801H5.89493H4.87075L4.9345 4.77262H6.2751H6.31641L6.32313 4.73358L6.45454 3.96914L6.46385 3.91493H6.40651H5.08413H5.02665H4.81544H4.77413H4.15838H4.11715L4.11037 3.95388L3.56123 7.10152ZM7.26861 7.1169L7.43597 6.1576H7.67303L8.08128 7.12667L8.09359 7.15585H8.12642H9.10266H9.17748L9.14716 7.0903L8.64539 6.00579C8.83785 5.91744 8.99847 5.79742 9.12644 5.64563C9.26324 5.48337 9.34959 5.29747 9.38535 5.08879C9.42419 4.86253 9.40042 4.65931 9.311 4.48136C9.22519 4.30138 9.08811 4.16091 8.90148 4.06045C8.71415 3.95661 8.4909 3.90737 8.23387 3.91044C8.23384 3.91044 8.23391 3.91044 8.23387 3.91044L7.6475 3.91493H6.90144H6.86023L6.85343 3.95388L6.30431 7.10152L6.29482 7.15585H6.35232H7.2206H7.26181L7.26861 7.1169ZM7.94808 5.2999H7.5856L7.67836 4.76814H8.11234C8.21169 4.76814 8.27973 4.79054 8.32406 4.8283L8.32524 4.82927C8.36915 4.86433 8.39222 4.91198 8.39222 4.9778C8.39222 5.05028 8.37276 5.10916 8.33598 5.15698L8.33572 5.15734C8.30148 5.20276 8.25197 5.23813 8.18443 5.26239L8.18378 5.26262C8.11871 5.28703 8.04049 5.2999 7.94808 5.2999ZM9.51031 7.10152L9.50082 7.15585H9.55832H10.1108H10.1685H10.4266H10.4678H11.7924H11.8334L11.8404 7.11705L11.9765 6.35262L11.9862 6.29815H11.9285H10.6174L10.6781 5.95075H11.7173H11.7584L11.7653 5.91192L11.8967 5.16997L11.9063 5.11552H11.8487H10.8238L10.8836 4.77262H12.1772H12.2186L12.2253 4.73358L12.3567 3.96914L12.366 3.91493H12.3087H11.0332H10.9757H10.7176H10.6763H10.1074H10.0662L10.0594 3.95388L9.51031 7.10152ZM12.3542 7.10152L12.3448 7.15585H12.4022H12.9547H13.0124H13.2705H13.3117H14.6363H14.6774L14.6843 7.11705L14.8204 6.35262L14.8301 6.29815H14.7724H13.4614L13.522 5.95075H14.5612H14.6023L14.6092 5.91192L14.7406 5.16997L14.7502 5.11552H14.6926H13.6677L13.7275 4.77262H15.0212H15.0625L15.0692 4.73358L15.2006 3.96914L15.2099 3.91493H15.1526H13.8771H13.8196H13.5615H13.5202H12.9514H12.9101L12.9033 3.95388L12.3542 7.10152Z" fill="#16DB65"/>
<path d="M8.23387 3.91044C8.4909 3.90737 8.71415 3.95661 8.90148 4.06045C9.08811 4.16091 9.22519 4.30138 9.311 4.48136C9.40042 4.65931 9.42419 4.86253 9.38535 5.08879C9.34959 5.29747 9.26324 5.48337 9.12644 5.64563C8.99847 5.79742 8.83785 5.91744 8.64539 6.00579L9.14716 7.0903L9.17748 7.15585H9.10266H8.12642H8.09359L8.08128 7.12667L7.67303 6.1576H7.43597L7.26861 7.1169L7.26181 7.15585H7.2206H6.35232H6.29482L6.30431 7.10152L6.85343 3.95388L6.86023 3.91493H6.90144H7.6475L8.23387 3.91044ZM8.23387 3.91044C8.23384 3.91044 8.23391 3.91044 8.23387 3.91044ZM3.56123 7.10152L3.55176 7.15585H3.60924H4.47752H4.51873L4.52553 7.1169L4.72112 5.99572H5.75882H5.79989L5.80681 5.95692L5.94292 5.19249L5.95262 5.13801H5.89493H4.87075L4.9345 4.77262H6.2751H6.31641L6.32313 4.73358L6.45454 3.96914L6.46385 3.91493H6.40651H5.08413H5.02665H4.81544H4.77413H4.15838H4.11715L4.11037 3.95388L3.56123 7.10152ZM7.94808 5.2999H7.5856L7.67836 4.76814H8.11234C8.21169 4.76814 8.27973 4.79054 8.32406 4.8283L8.32524 4.82927C8.36915 4.86433 8.39222 4.91198 8.39222 4.9778C8.39222 5.05028 8.37276 5.10916 8.33598 5.15698L8.33572 5.15734C8.30148 5.20276 8.25197 5.23813 8.18443 5.26239L8.18378 5.26262C8.11871 5.28703 8.04049 5.2999 7.94808 5.2999ZM9.51031 7.10152L9.50083 7.15585H9.55832H10.1108H10.1685H10.4266H10.4678H11.7924H11.8334L11.8404 7.11705L11.9765 6.35262L11.9862 6.29815H11.9285H10.6174L10.6781 5.95075H11.7173H11.7584L11.7653 5.91192L11.8967 5.16997L11.9063 5.11552H11.8487H10.8238L10.8836 4.77262H12.1772H12.2186L12.2253 4.73358L12.3567 3.96914L12.366 3.91493H12.3087H11.0332H10.9757H10.7176H10.6763H10.1074H10.0662L10.0594 3.95388L9.51031 7.10152ZM12.3542 7.10152L12.3448 7.15585H12.4022H12.9547H13.0124H13.2705H13.3117H14.6363H14.6774L14.6843 7.11705L14.8204 6.35262L14.8301 6.29815H14.7724H13.4614L13.522 5.95075H14.5612H14.6023L14.6092 5.91192L14.7406 5.16997L14.7502 5.11552H14.6926H13.6677L13.7275 4.77262H15.0212H15.0625L15.0692 4.73358L15.2006 3.96914L15.2099 3.91493H15.1526H13.8771H13.8196H13.5615H13.5202H12.9514H12.9101L12.9033 3.95388L12.3542 7.10152Z" stroke="#16DB65" stroke-width="0.2"/>
</g>
<defs>
<clipPath id="clip0_27_655">
<rect width="25" height="14" fill="white"/>
</clipPath>
</defs>
</svg>
