<svg width="21" height="22" viewBox="0 0 21 22" fill="none" xmlns="http://www.w3.org/2000/svg">
<path d="M18.235 4.2258C17.7881 3.75739 17.2575 3.38581 16.6734 3.13229C16.0894 2.87878 15.4634 2.74829 14.8313 2.74829C14.1991 2.74829 13.5731 2.87878 12.9891 3.13229C12.405 3.38581 11.8744 3.75739 11.4275 4.2258L10.5 5.19746L9.57251 4.2258C8.66978 3.28008 7.44542 2.74878 6.16876 2.74878C4.89211 2.74878 3.66774 3.28008 2.76501 4.2258C1.86228 5.17152 1.35513 6.45418 1.35513 7.79163C1.35513 9.12908 1.86228 10.4117 2.76501 11.3575L10.5 19.4608L18.235 11.3575C18.6821 10.8893 19.0368 10.3334 19.2788 9.72154C19.5208 9.1097 19.6454 8.45391 19.6454 7.79163C19.6454 7.12935 19.5208 6.47356 19.2788 5.86172C19.0368 5.24988 18.6821 4.69399 18.235 4.2258Z" fill="#EC221F" stroke="#EC221F" stroke-width="1.5" stroke-linecap="round" stroke-linejoin="round"/>
</svg>
