<svg width="15" height="16" viewBox="0 0 15 16" fill="none" xmlns="http://www.w3.org/2000/svg">
<path d="M10 4.33332L9.725 4.69999C9.4625 5.04666 9.1125 5.19999 8.7625 5.19999C8.125 5.19999 7.5 4.67999 7.5 3.86666V1.66666C7.5 1.66666 2.5 4.33332 2.5 8.99999C2.5 11.9467 4.7375 14.3333 7.5 14.3333C10.2625 14.3333 12.5 11.9467 12.5 8.99999C12.5 7.02666 11.4937 5.25332 10 4.33332ZM7.5 13C6.8125 13 6.25 12.42 6.25 11.7067C6.25 11.3667 6.375 11.0467 6.6125 10.8L7.5 9.86666L8.39375 10.8C8.625 11.0467 8.75 11.3667 8.75 11.7067C8.75 12.42 8.1875 13 7.5 13ZM9.975 12C10 11.76 10.1125 10.74 9.26875 9.85332L7.5 7.99999L5.73125 9.85332C4.88125 10.7467 5 11.7733 5.025 12C4.24375 11.2667 3.75 10.1933 3.75 8.99999C3.75 6.89332 5.08125 5.23332 6.26875 4.16666C6.4125 5.49332 7.475 6.53332 8.7625 6.53332C9.25 6.53332 9.725 6.37999 10.125 6.09332C10.8375 6.85332 11.25 7.89999 11.25 8.99999C11.25 10.1933 10.7563 11.2667 9.975 12Z" fill="black"/>
</svg>
